<?xml version="1.0"?>
<svg width="640" height="480" xmlns="http://www.w3.org/2000/svg" xmlns:svg="http://www.w3.org/2000/svg">
 <!-- Created with SVG-edit - https://github.com/SVG-Edit/svgedit-->
 <g class="layer">
  <title>Layer 1</title>
  <ellipse cx="280.500001" cy="241.000009" fill="#ffaa56" id="svg_1" rx="213.000001" ry="206.500008" stroke="#000000" stroke-dasharray="null" stroke-linecap="null" stroke-linejoin="null" stroke-width="5"/>
  <text fill="#000000" font-family="serif" font-size="24" id="svg_2" stroke="#000000" stroke-dasharray="null" stroke-linecap="null" stroke-linejoin="null" stroke-width="0" text-anchor="middle" transform="matrix(3.41193 0 0 4.13953 -346.549 -572.261)" x="183.5" xml:space="preserve" y="201.5">R J A R</text>
  <polygon cx="244.5" cy="321.5" fill="#ffaa56" id="svg_8" orient="point" point="5" points="266.49999947160336,285.95731188768525 281.151030965744,329.7772236491129 325.76473946183773,330.7224113761314 290.2058710536346,358.74978178049616 303.1276239833221,403.1538391607302 266.49999947160336,376.65580210219025 229.87239021867367,403.1538391607302 242.79411263078305,358.74978178049616 207.23527474015805,330.7224113761314 251.8489374598846,329.7772236491129 266.49999947160336,285.95731188768525 281.151030965744,329.7772236491129 " r="46.542692" r2="18.617077" shape="star" stroke="#000000" stroke-width="5" strokeWidth="5" strokecolor="#000000" transform="rotate(-0.00000759381 266.873 345.037)"/>
  <polygon cx="264.5" cy="340.5" fill="#ffaa56" id="svg_10" orient="point" point="5" points="265.50000019119034,329.83810402140807 268.4890965427767,341.09124223735125 277.59112548828125,341.3339591173353 270.33646361767023,348.5315268362101 272.9727410701562,359.9346923828125 265.50000019119034,353.129868874581 258.0272593122245,359.9346923828125 260.66353676471044,348.5315268362101 253.40887489409943,341.3339591173353 262.510903839604,341.09124223735125 265.50000019119034,329.83810402140807 268.4890965427767,341.09124223735125 " r="11.661904" r2="4.664762" shape="star" stroke="#000000" stroke-width="5" strokeWidth="5" strokecolor="#000000"/>
 </g>
</svg>